SATAN - Yo Yo Honey Singh - Full Song HD - S A T A N - 12 12 12 720p [PKG]

Small In Size But Best IN QUALITY....
Unbeatable QUALITY..
 
https://kastatic.com/i2/u/2245526/ekgo0IRhcy.png 
https://kastatic.com/i2/u/2245526/GHy8SzEkYl.png 
https://kastatic.com/i2/u/2245526/w365L2N9Fq.png 
https://kastatic.com/i2/u/2245526/PUgLblZzW3.png 
https://kastatic.com/i2/u/2245526/t9VkmM1826.png


General
Complete name : D:DownloadsSATAN - Yo Yo Honey Singh - Full Song HD - S.A.T.A.N - 12.12.12SATAN - Yo Yo Honey Singh - Full Song HD - S.A.T.A.N - 12.12.12.mp4
Format : MPEG-4
Format profile : Base Media / Version 2
Codec ID : mp42
File size : 116 MiB
Duration : 7mn 29s
Overall bit rate mode : Variable
Overall bit rate : 2 168 Kbps
Encoded date : UTC 2012-12-10 09:22:21
Tagged date : UTC 2012-12-10 09:22:21
gsst : 0
gstd : 449746
gssd : B4A7DA981HH1356195580213979
gshh :

Video
ID : 1
Format : AVC
Format/Info : Advanced Video Codec
Format profile : High@L3.1
Format settings, CABAC : Yes
Format settings, ReFrames : 1 frame
Format settings, GOP : M=1, N=60
Codec ID : avc1
Codec ID/Info : Advanced Video Coding
Duration : 7mn 29s
Bit rate : 1 974 Kbps
Maximum bit rate : 6 953 Kbps
Width : 1 280 pixels
Height : 720 pixels
Display aspect ratio : 16:9
Frame rate mode : Constant
Frame rate : 25.000 fps
Color space : YUV
Chroma subsampling : 4:2:0
Bit depth : 8 bits
Scan type : Progressive
Bits/(Pixel*Frame) : 0.086
Stream size : 106 MiB (91%)
Tagged date : UTC 2012-12-10 09:22:21

Audio
ID : 2
Format : AAC
Format/Info : Advanced Audio Codec
Format profile : LC
Codec ID : 40
Duration : 7mn 29s
Bit rate mode : Variable
Bit rate : 192 Kbps
Maximum bit rate : 202 Kbps
Channel(s) : 2 channels
Channel positions : Front: L R
Sampling rate : 44.1 KHz
Compression mode : Lossy
Stream size : 10.3 MiB (9%)